HIERARCHY
ROOT Hips
{
  OFFSET 5.84602e-005 68.8428 3.50346
  CHANNELS 6 Xposition Yposition Zposition Zrotation Xrotation Yrotation
  JOINT Spine
  {
    OFFSET 0 8.597 -4.6522
    CHANNELS 3 Zrotation Xrotation Yrotation
    JOINT Spine1
    {
      OFFSET 0 7.8454 0.4098
      CHANNELS 3 Zrotation Xrotation Yrotation
      JOINT Spine2
      {
        OFFSET 0 9.7078 -2.1609
        CHANNELS 3 Zrotation Xrotation Yrotation
        JOINT Neck
        {
          OFFSET 0 21.8761 -0.4549
          CHANNELS 3 Zrotation Xrotation Yrotation
          JOINT Head
          {
            OFFSET 0 12.3537 3.3602
            CHANNELS 3 Zrotation Xrotation Yrotation
            End Site
            {
              OFFSET 0.0001 18.9506 0.5657
            }
          }
        }
        JOINT LeftShoulder
        {
          OFFSET 2.2086 21.1115 7.2329
          CHANNELS 3 Zrotation Xrotation Yrotation
          JOINT LeftArm
          {
            OFFSET 13.1193 3.0282 -4.8998
            CHANNELS 3 Zrotation Xrotation Yrotation
            JOINT LeftForeArm
            {
              OFFSET 27.4081 -0.0973053 -0.2375
              CHANNELS 3 Zrotation Xrotation Yrotation
              JOINT LeftHand
              {
                OFFSET 22.8641 0.0662994 -0.1369
                CHANNELS 3 Zrotation Xrotation Yrotation
                JOINT LeftHandIndex1
                {
                  OFFSET 8.8614 0.775009 2.4612
                  CHANNELS 3 Zrotation Xrotation Yrotation
                  JOINT LeftHandIndex2
                  {
                    OFFSET 3.3146 -0.808304 0.5841
                    CHANNELS 3 Zrotation Xrotation Yrotation
                    JOINT LeftHandIndex3
                    {
                      OFFSET 2.2628 -0.552002 0.3989
                      CHANNELS 3 Zrotation Xrotation Yrotation
                      End Site
                      {
                        OFFSET 1.6102 -0.4807 0.2612
                      }
                    }
                  }
                }
                JOINT LeftHandMiddle1
                {
                  OFFSET 8.9937 0.895004 0.2143
                  CHANNELS 3 Zrotation Xrotation Yrotation
                  JOINT LeftHandMiddle2
                  {
                    OFFSET 4.0984 0.0113983 -0.0242
                    CHANNELS 3 Zrotation Xrotation Yrotation
                    JOINT LeftHandMiddle3
                    {
                      OFFSET 2.2716 0.00689697 -0.0138001
                      CHANNELS 3 Zrotation Xrotation Yrotation
                      End Site
                      {
                        OFFSET 2.0404 -0.1441 0.0027
                      }
                    }
                  }
                }
                JOINT LeftHandRing1
                {
                  OFFSET 8.5234 0.597198 -2.0164
                  CHANNELS 3 Zrotation Xrotation Yrotation
                  JOINT LeftHandRing2
                  {
                    OFFSET 3.7188 -0.188293 -0.2328
                    CHANNELS 3 Zrotation Xrotation Yrotation
                    JOINT LeftHandRing3
                    {
                      OFFSET 2.1191 -0.106598 -0.1332
                      CHANNELS 3 Zrotation Xrotation Yrotation
                      End Site
                      {
                        OFFSET 1.8737 -0.2304 -0.0886
                      }
                    }
                  }
                }
                JOINT LeftHandPinky1
                {
                  OFFSET 7.9094 -0.601089 -3.4825
                  CHANNELS 3 Zrotation Xrotation Yrotation
                  JOINT LeftHandPinky2
                  {
                    OFFSET 2.2874 -0.477005 -0.6314
                    CHANNELS 3 Zrotation Xrotation Yrotation
                    JOINT LeftHandPinky3
                    {
                      OFFSET 1.6774 -0.349396 -0.4633
                      CHANNELS 3 Zrotation Xrotation Yrotation
                      End Site
                      {
                        OFFSET 1.4888 -0.4091 -0.3416
                      }
                    }
                  }
                }
                JOINT LeftHandThumb1
                {
                  OFFSET 1.833 -1.3875 1.3896
                  CHANNELS 3 Zrotation Xrotation Yrotation
                  JOINT LeftHandThumb2
                  {
                    OFFSET 3.4129 -1.121 2.5732
                    CHANNELS 3 Zrotation Xrotation Yrotation
                    JOINT LeftHandThumb3
                    {
                      OFFSET 2.2474 -0.804199 1.6192
                      CHANNELS 3 Zrotation Xrotation Yrotation
                      End Site
                      {
                        OFFSET 1.6527 -0.5689 1.1317
                      }
                    }
                  }
                }
              }
            }
          }
        }
        JOINT RightShoulder
        {
          OFFSET -2.2086 21.1115 7.2329
          CHANNELS 3 Zrotation Xrotation Yrotation
          JOINT RightArm
          {
            OFFSET -13.1216 3.0287 -4.9007
            CHANNELS 3 Zrotation Xrotation Yrotation
            JOINT RightForeArm
            {
              OFFSET -27.4081 -0.0973053 -0.2375
              CHANNELS 3 Zrotation Xrotation Yrotation
              JOINT RightHand
              {
                OFFSET -22.8641 0.0664063 -0.1369
                CHANNELS 3 Zrotation Xrotation Yrotation
                JOINT RightHandIndex1
                {
                  OFFSET -8.8614 0.774994 2.4612
                  CHANNELS 3 Zrotation Xrotation Yrotation
                  JOINT RightHandIndex2
                  {
                    OFFSET -3.3146 -0.808304 0.5841
                    CHANNELS 3 Zrotation Xrotation Yrotation
                    JOINT RightHandIndex3
                    {
                      OFFSET -2.2628 -0.552002 0.3989
                      CHANNELS 3 Zrotation Xrotation Yrotation
                      End Site
                      {
                        OFFSET -1.6102 -0.4807 0.2612
                      }
                    }
                  }
                }
                JOINT RightHandMiddle1
                {
                  OFFSET -8.9937 0.894989 0.2143
                  CHANNELS 3 Zrotation Xrotation Yrotation
                  JOINT RightHandMiddle2
                  {
                    OFFSET -4.0984 0.0113983 -0.0242
                    CHANNELS 3 Zrotation Xrotation Yrotation
                    JOINT RightHandMiddle3
                    {
                      OFFSET -2.2716 0.00691223 -0.0138001
                      CHANNELS 3 Zrotation Xrotation Yrotation
                      End Site
                      {
                        OFFSET -2.0404 -0.1441 0.0027
                      }
                    }
                  }
                }
                JOINT RightHandRing1
                {
                  OFFSET -8.5234 0.597198 -2.0164
                  CHANNELS 3 Zrotation Xrotation Yrotation
                  JOINT RightHandRing2
                  {
                    OFFSET -3.7188 -0.188309 -0.2328
                    CHANNELS 3 Zrotation Xrotation Yrotation
                    JOINT RightHandRing3
                    {
                      OFFSET -2.1191 -0.106598 -0.1332
                      CHANNELS 3 Zrotation Xrotation Yrotation
                      End Site
                      {
                        OFFSET -1.8737 -0.2304 -0.0886
                      }
                    }
                  }
                }
                JOINT RightHandPinky1
                {
                  OFFSET -7.9094 -0.601105 -3.4825
                  CHANNELS 3 Zrotation Xrotation Yrotation
                  JOINT RightHandPinky2
                  {
                    OFFSET -2.2874 -0.477005 -0.6314
                    CHANNELS 3 Zrotation Xrotation Yrotation
                    JOINT RightHandPinky3
                    {
                      OFFSET -1.6774 -0.349396 -0.4633
                      CHANNELS 3 Zrotation Xrotation Yrotation
                      End Site
                      {
                        OFFSET -1.4888 -0.4091 -0.3416
                      }
                    }
                  }
                }
                JOINT RightHandThumb1
                {
                  OFFSET -1.833 -1.38751 1.3896
                  CHANNELS 3 Zrotation Xrotation Yrotation
                  JOINT RightHandThumb2
                  {
                    OFFSET -3.41299 -1.12099 2.5732
                    CHANNELS 3 Zrotation Xrotation Yrotation
                    JOINT RightHandThumb3
                    {
                      OFFSET -2.24741 -0.804108 1.6192
                      CHANNELS 3 Zrotation Xrotation Yrotation
                      End Site
                      {
                        OFFSET -1.6527 -0.5689 1.1317
                      }
                    }
                  }
                }
              }
            }
          }
        }
      }
    }
  }
  JOINT RightUpLeg
  {
    OFFSET -9.1966 3.8861 -0.7581
    CHANNELS 3 Zrotation Xrotation Yrotation
    JOINT RightLeg
    {
      OFFSET -0.7359 -41.0265 0
      CHANNELS 3 Zrotation Xrotation Yrotation
      JOINT RightFoot
      {
        OFFSET 0 -40.2855 0
        CHANNELS 3 Zrotation Xrotation Yrotation
        JOINT RightToeBase
        {
          OFFSET 0 -5.6122 11.7359
          CHANNELS 3 Zrotation Xrotation Yrotation
          End Site
          {
            OFFSET 0 0 7.8731
          }
        }
      }
    }
  }
  JOINT LeftUpLeg
  {
    OFFSET 9.1965 3.8864 -0.7581
    CHANNELS 3 Zrotation Xrotation Yrotation
    JOINT LeftLeg
    {
      OFFSET 0.7359 -41.0268 0
      CHANNELS 3 Zrotation Xrotation Yrotation
      JOINT LeftFoot
      {
        OFFSET 0 -40.2855 0
        CHANNELS 3 Zrotation Xrotation Yrotation
        JOINT LeftToeBase
        {
          OFFSET 0 -5.6122 11.7359
          CHANNELS 3 Zrotation Xrotation Yrotation
          End Site
          {
            OFFSET 0 0 7.8731
          }
        }
      }
    }
  }
}
MOTION
Frames:	6
Frame Time:	0.0333333
5.84602e-005 68.8428 3.50346 0 0 -0 0 0 -0 0 0 -0 0 0 -0 0 0 -0 0 0 -0 0 0 -0 0 0 -0 0 0 -0 0 0 -0 0 0 -0 0 0 -0 0 0 -0 0 0 -0 -0.0146107 -8.87603e-005 -2.63497e-007 2.99804e-018 -2.42657e-020 -1.42182e-022 0 0 -0 -0.0187562 -0.001176 5.858e-005 5.06224e-018 3.88251e-019 1.21329e-020 0 0 -0 -0.012269 -0.00324817 0.000675346 -1.74678e-018 3.88251e-019 -0 0 0 -0 0 0 -0 0 0 -0 0 0 -0 0 0 -0 0 0 -0 0 0 -0 0 0 -0 0 0 -0 0 0 -0 0 0 -0 0.0149955 -9.10982e-005 2.64101e-007 -9.69331e-018 1.21329e-020 -4.7394e-023 0 0 -0 0.0189956 -0.00119102 -5.96516e-005 -5.41541e-019 0 2.42657e-020 0 0 -0 0.0122698 -0.00324857 -0.000673756 -2.00796e-019 0 -1.94126e-019 0 0 -0 0 0 -0 0 0 -0 3.39842 1.33031 -0.0637918 -5.65207e-008 0.834868 -0.000436188 -3.39935 -2.16518 -0.0642563 -8.89002e-024 -1.18485e-023 -1.48106e-024 -3.39844 1.35642 0.0640283 -3.18788e-007 0.782166 -0.000588827 3.39931 -2.13858 0.0634662 1.1399e-023 0 -0 
1.85157 36.7277 37.1705 -0.0151062 0.00480107 -125.263 -1.47141 2.51893 -0.0765076 -2.94374 5.03906 -0.0883497 -2.94375 5.03906 -0.088316 3.55138e-005 7.39868 3.70651e-005 1.31961e-006 -27.4107 -1.42284e-006 -8.44243 -49.2468 17.5511 -45.3222 19.2176 18.3914 52.5996 -10.4229 -7.38491 -2.67544 -20.168 -3.6227 6.71165e-007 -4.42298e-007 -2.81506e-007 -1.82195e-006 3.13664e-006 -2.97537e-006 6.71165e-007 -4.42298e-007 -2.81506e-007 6.71165e-007 -4.42298e-007 -2.81506e-007 -0.0146126 -8.77167e-005 1.84112e-006 6.71172e-007 -4.42262e-007 -2.81563e-007 6.71165e-007 -4.42298e-007 -2.81506e-007 -0.0187547 -0.00117618 6.71234e-005 6.71171e-007 -4.42252e-007 -2.81585e-007 6.71165e-007 -4.42298e-007 -2.81506e-007 -0.0122355 -0.00323505 0.000673758 6.71161e-007 -4.4227e-007 -2.81572e-007 6.71165e-007 -4.42298e-007 -2.81506e-007 -1.82195e-006 3.13664e-006 -2.97537e-006 6.71165e-007 -4.42298e-007 -2.81506e-007 1.4718 -21.7727 16.1537 43.423 -3.47838 24.2134 -0.115392 -2.15979 28.3309 6.57082 -9.95016 3.92477 -5.03502e-007 -5.51289e-008 -1.43051e-007 7.65542e-008 -5.52415e-008 1.60264e-007 -3.50394e-007 -1.65612e-007 1.77477e-007 -5.03502e-007 -5.51289e-008 -1.43051e-007 0.0149272 -9.64655e-005 -2.87736e-006 -1.95106e-007 -2.76044e-007 4.9804e-007 -5.03502e-007 -5.51289e-008 -1.43051e-007 0.0190637 -0.00119541 -5.51712e-005 -5.06294e-007 -5.4978e-008 -1.43028e-007 -5.03502e-007 -5.51289e-008 -1.43051e-007 0.0122939 -0.00325165 -0.000676936 -3.5039e-007 -1.65594e-007 1.77504e-007 -5.03502e-007 -5.51289e-008 -1.43051e-007 7.65542e-008 -5.52415e-008 1.60264e-007 -3.50394e-007 -1.65612e-007 1.77477e-007 -2.13375 -10.4352 -1.79796 -47.2473 83.5628 45.3451 -9.2542 38.7913 1.48164 3.18055e-015 -3.57812e-015 1.59028e-015 0.928456 -12.1347 3.96505 41.2424 83.447 -39.9146 9.19907 38.5855 2.09983 -9.7878e-007 2.65663e-006 8.92104e-007 
7.4019 22.1939 53.0935 -0.0117114 0.0120496 178.369 -2.16914 3.72194 -0.17691 -4.34052 7.44791 -0.212837 -4.34052 7.4479 -0.212839 2.34227e-005 10.7283 -1.71869e-005 2.67048e-006 -39.7456 1.01966e-006 11.5424 -66.8093 46.0252 -69.6936 26.4293 28.0517 73.7152 -15.0363 -11.2085 -4.82718 -29.1785 -5.6492 3.97569e-016 -6.36111e-015 7.95139e-016 -3.97569e-016 -1.27222e-014 1.98785e-015 -3.97569e-016 -1.59028e-014 1.78906e-015 3.97569e-016 -6.36111e-015 7.95139e-016 -0.0145756 -8.85292e-005 3.11478e-006 -3.97569e-016 3.18055e-015 -5.96354e-016 3.97569e-016 -6.36111e-015 7.95139e-016 -0.0187787 -0.00118201 5.85774e-005 -4.37326e-015 3.18055e-015 1.39149e-015 3.97569e-016 -6.36111e-015 7.95139e-016 -0.012309 -0.00326164 0.000678139 3.97569e-016 -9.54166e-015 -0 3.97569e-016 -6.36111e-015 7.95139e-016 -3.97569e-016 -1.27222e-014 1.98785e-015 -3.97569e-016 -1.59028e-014 1.78906e-015 6.30346 -30.1454 24.6402 64.0272 -4.34811 35.1926 0.594389 -2.61034 41.7828 9.86218 -14.6359 5.67359 -1.3768e-007 -3.94065e-007 -2.16016e-006 3.18055e-015 3.57812e-015 -7.95139e-016 3.18055e-015 2.78299e-015 -1.59028e-015 -1.3768e-007 -3.94065e-007 -2.16016e-006 0.0150158 -8.57913e-005 6.25426e-007 1.10348e-031 3.97569e-015 -1.59028e-015 -1.3768e-007 -3.94065e-007 -2.16016e-006 0.0189782 -0.0011882 -6.12199e-005 -1.39709e-007 -3.94297e-007 -2.16008e-006 -1.3768e-007 -3.94065e-007 -2.16016e-006 0.0122446 -0.00323709 -0.000675714 2.48282e-031 5.96354e-015 -2.38542e-015 -1.3768e-007 -3.94065e-007 -2.16016e-006 3.18055e-015 3.57812e-015 -7.95139e-016 3.18055e-015 2.78299e-015 -1.59028e-015 -4.3498 -15.5058 -4.03355 -168.525 57.1766 162.504 -12.3584 58.7827 2.16302 7.95139e-016 4.77083e-015 4.77083e-015 2.92245 -17.7937 7.19701 168.272 58.0219 -163.333 8.78617 58.3929 5.76804 -1.64206e-007 1.73116e-006 1.0763e-007 
6.02556 25.425 49.2585 -0.0133532 0.011028 -169.105 -2.11403 3.58921 -0.139889 -4.23175 7.18113 -0.147169 -4.23175 7.18113 -0.147166 3.61718e-005 9.98817 -1.32996e-005 -8.23085e-007 -37.0045 -2.49001e-006 3.43876 -63.8291 36.8239 -63.2625 25.3476 25.296 65.4183 -14.1593 -11.013 -4.28676 -27.1821 -5.16179 3.18055e-015 0 6.36111e-015 6.36111e-015 0 7.95139e-015 4.77083e-015 9.54166e-015 1.27222e-014 3.18055e-015 0 6.36111e-015 -0.0145538 -8.64131e-005 7.94058e-007 6.11764e-008 -2.94691e-006 1.67128e-006 3.18055e-015 0 6.36111e-015 -0.0188315 -0.00118277 5.92075e-005 -1.59028e-015 3.18055e-015 -0 3.18055e-015 0 6.36111e-015 -0.0122885 -0.00324911 0.000675478 3.18055e-015 9.54166e-015 -1.59028e-015 3.18055e-015 0 6.36111e-015 6.36111e-015 0 7.95139e-015 4.77083e-015 9.54166e-015 1.27222e-014 4.33981 -28.2982 21.098 59.7606 -3.79064 32.8115 0.658685 -2.39091 40.3055 8.82819 -14.1427 5.02202 -1.50517e-007 -1.4529e-006 -3.31278e-006 -1.50517e-007 -1.4529e-006 -3.31278e-006 6.73484e-007 -3.71123e-007 -1.40672e-006 -1.50517e-007 -1.4529e-006 -3.31278e-006 0.015015 -9.19176e-005 -2.96652e-006 -1.50938e-007 -1.45334e-006 -3.31259e-006 -1.50517e-007 -1.4529e-006 -3.31278e-006 0.0189612 -0.0011921 -6.73791e-005 -1.5108e-007 -1.45342e-006 -3.31254e-006 -1.50517e-007 -1.4529e-006 -3.31278e-006 0.0122407 -0.00323645 -0.000675454 -1.50943e-007 -1.45317e-006 -3.3126e-006 -1.50517e-007 -1.4529e-006 -3.31278e-006 -1.50517e-007 -1.4529e-006 -3.31278e-006 6.73484e-007 -3.71123e-007 -1.40672e-006 -3.88535 -14.3297 -3.32507 -165.314 65.0871 160.497 -11.6916 54.2191 2.04508 4.6852e-007 1.95796e-007 -1.81633e-006 2.49099 -16.3535 6.25704 165.181 65.8972 -161.313 9.35844 53.8974 4.49436 -3.09201e-007 -2.98915e-009 5.17313e-007 
6.02553 25.4244 49.2579 -0.0133532 0.011028 -169.105 -2.19529 3.69973 -0.130315 -4.39593 7.40175 -0.118546 -4.39592 7.40174 -0.118548 -0.000167231 9.98896 6.90328e-005 2.01699e-006 -37.0045 7.75552e-007 3.09436 -63.9394 36.9909 -62.6254 25.6564 24.8928 62.417 -14.2361 -11.5702 -4.28676 -27.1821 -5.16178 -4.77083e-015 1.27222e-014 -3.18055e-015 -7.95139e-015 1.90833e-014 7.15625e-015 -7.95139e-015 1.90833e-014 5.56597e-015 -4.77083e-015 1.27222e-014 -3.18055e-015 -0.0146307 -8.57857e-005 -4.02341e-006 -1.59028e-015 6.36111e-015 3.18055e-015 -4.77083e-015 1.27222e-014 -3.18055e-015 -0.0188322 -0.00118021 6.09903e-005 -6.36111e-015 1.27222e-014 5.56597e-015 -4.77083e-015 1.27222e-014 -3.18055e-015 -0.012298 -0.00325708 0.000679407 5.401e-007 2.78954e-006 -1.85291e-006 -4.77083e-015 1.27222e-014 -3.18055e-015 -7.95139e-015 1.90833e-014 7.15625e-015 -7.95139e-015 1.90833e-014 5.56597e-015 3.81785 -28.2069 19.8625 60.0446 -3.46095 32.8595 0.858844 -2.25746 41.5468 8.5991 -14.5881 4.81101 9.54166e-015 -4.37326e-015 -7.95139e-016 4.60932e-006 1.60201e-006 -6.66094e-006 -1.6755e-006 9.30337e-007 -2.37959e-006 9.54166e-015 -4.37326e-015 -7.95139e-016 0.0149989 -9.71664e-005 -2.86748e-006 -1.67571e-006 9.30027e-007 -2.37971e-006 9.54166e-015 -4.37326e-015 -7.95139e-016 0.0189958 -0.00119106 -6.30792e-005 -1.67578e-006 9.29957e-007 -2.37973e-006 9.54166e-015 -4.37326e-015 -7.95139e-016 0.0122715 -0.00325851 -0.000691093 -1.67574e-006 9.30115e-007 -2.37964e-006 9.54166e-015 -4.37326e-015 -7.95139e-016 4.60932e-006 1.60201e-006 -6.66094e-006 -1.6755e-006 9.30337e-007 -2.37959e-006 -3.88543 -14.3285 -3.32521 -165.314 65.0872 160.497 -11.6914 54.2181 2.0448 2.25904e-008 1.84054e-007 -3.42469e-006 2.49633 -16.2416 6.24601 165.183 65.8952 -161.314 9.35889 53.8993 4.49391 -6.86867e-007 2.84365e-008 -1.58565e-007 
6.02553 25.4239 49.2572 -0.0133532 0.011028 -169.105 -2.27665 3.81035 -0.120128 -4.56047 7.62248 -0.0883843 -4.56047 7.62248 -0.0883811 1.86921e-005 9.9882 -4.32582e-006 7.73768e-007 -37.0045 2.58338e-006 2.74922 -64.0503 37.1572 -61.9838 25.9614 24.4844 59.4155 -14.2732 -12.1694 -4.28676 -27.1821 -5.16179 -4.77083e-015 3.18055e-015 2.38542e-015 -1.59028e-015 6.36111e-015 1.59028e-015 1.59028e-015 -3.18055e-015 7.95139e-016 -4.77083e-015 3.18055e-015 2.38542e-015 -0.0145616 -8.82546e-005 1.29775e-006 3.18055e-015 -9.54166e-015 3.97569e-015 -4.77083e-015 3.18055e-015 2.38542e-015 -0.0188045 -0.00117994 5.99591e-005 1.18467e-006 2.58649e-006 -1.81981e-007 -4.77083e-015 3.18055e-015 2.38542e-015 -0.0123255 -0.00326596 0.000682865 1.18522e-006 2.5863e-006 -1.82097e-007 -4.77083e-015 3.18055e-015 2.38542e-015 -1.59028e-015 6.36111e-015 1.59028e-015 1.59028e-015 -3.18055e-015 7.95139e-016 3.29771 -28.1055 18.6267 60.3284 -3.13075 32.9058 1.05659 -2.11924 42.7908 8.36778 -15.0328 4.59768 -1.4935e-007 -1.44577e-006 -3.30713e-006 -4.88312e-006 4.23781e-006 -3.82222e-006 1.52814e-006 -2.37645e-006 -9.30682e-007 -1.4935e-007 -1.44577e-006 -3.30713e-006 0.0149966 -9.19629e-005 -7.8946e-006 1.52792e-006 -2.37657e-006 -9.30372e-007 -1.4935e-007 -1.44577e-006 -3.30713e-006 0.0189816 -0.00119024 -7.00954e-005 1.52785e-006 -2.37659e-006 -9.30303e-007 -1.4935e-007 -1.44577e-006 -3.30713e-006 0.0122337 -0.0032333 -0.00068001 1.52795e-006 -2.37649e-006 -9.30462e-007 -1.4935e-007 -1.44577e-006 -3.30713e-006 -4.88312e-006 4.23781e-006 -3.82222e-006 1.52814e-006 -2.37645e-006 -9.30682e-007 -3.88551 -14.3274 -3.32533 -165.314 65.0872 160.497 -11.6912 54.217 2.04451 1.89105e-007 1.32381e-007 -1.75278e-006 2.50184 -16.1271 6.23507 165.182 65.8957 -161.314 9.35936 53.9013 4.49346 -4.13469e-007 1.61521e-008 1.03226e-007 
